<svg id="レイヤー_1" data-name="レイヤー 1" xmlns="http://www.w3.org/2000/svg" viewBox="0 0 720 720"><defs><style>.cls-1{fill:none;stroke:#fff;stroke-miterlimit:10;}</style></defs><title>mesh</title><line class="cls-1" x1="0.5" x2="0.5" y2="720"/><line class="cls-1" x1="48.43333" x2="48.43333" y2="720"/><line class="cls-1" x1="96.36667" x2="96.36667" y2="720"/><line class="cls-1" x1="144.3" x2="144.3" y2="720"/><line class="cls-1" x1="192.23333" x2="192.23333" y2="720"/><line class="cls-1" x1="240.16667" x2="240.16667" y2="720"/><line class="cls-1" x1="288.1" x2="288.1" y2="720"/><line class="cls-1" x1="336.03333" x2="336.03333" y2="720"/><line class="cls-1" x1="383.96667" x2="383.96667" y2="720"/><line class="cls-1" x1="431.9" x2="431.9" y2="720"/><line class="cls-1" x1="479.83333" x2="479.83333" y2="720"/><line class="cls-1" x1="527.76667" x2="527.76667" y2="720"/><line class="cls-1" x1="575.7" x2="575.7" y2="720"/><line class="cls-1" x1="623.63333" x2="623.63333" y2="720"/><line class="cls-1" x1="671.56667" x2="671.56667" y2="720"/><line class="cls-1" x1="719.5" x2="719.5" y2="720"/><line class="cls-1" x1="720" y1="0.5" y2="0.5"/><line class="cls-1" x1="720" y1="48.43333" y2="48.43333"/><line class="cls-1" x1="720" y1="96.36667" y2="96.36667"/><line class="cls-1" x1="720" y1="144.3" y2="144.3"/><line class="cls-1" x1="720" y1="192.23333" y2="192.23333"/><line class="cls-1" x1="720" y1="240.16667" y2="240.16667"/><line class="cls-1" x1="720" y1="288.1" y2="288.1"/><line class="cls-1" x1="720" y1="336.03333" y2="336.03333"/><line class="cls-1" x1="720" y1="383.96667" y2="383.96667"/><line class="cls-1" x1="720" y1="431.9" y2="431.9"/><line class="cls-1" x1="720" y1="479.83333" y2="479.83333"/><line class="cls-1" x1="720" y1="527.76667" y2="527.76667"/><line class="cls-1" x1="720" y1="575.7" y2="575.7"/><line class="cls-1" x1="720" y1="623.63333" y2="623.63333"/><line class="cls-1" x1="720" y1="671.56667" y2="671.56667"/><line class="cls-1" x1="720" y1="719.5" y2="719.5"/></svg>